<?xml version="1.0" encoding="UTF-8"?><svg xmlns="http://www.w3.org/2000/svg" xmlns:xlink="http://www.w3.org/1999/xlink" fill-opacity="1" color-rendering="auto" color-interpolation="auto" text-rendering="auto" stroke="black" stroke-linecap="square" width="563" stroke-miterlimit="10" shape-rendering="auto" stroke-opacity="1" fill="black" stroke-dasharray="none" font-weight="normal" stroke-width="1" height="372" font-family="'Dialog'" font-style="normal" stroke-linejoin="miter" font-size="12px" stroke-dashoffset="0" image-rendering="auto">
  <!--Generated by ySVG 2.5-->
  <defs id="genericDefs"/>
  <g>
    <defs id="defs1">
      <clipPath clipPathUnits="userSpaceOnUse" id="clipPath1">
        <path d="M0 0 L563 0 L563 372 L0 372 L0 0 Z"/>
      </clipPath>
      <clipPath clipPathUnits="userSpaceOnUse" id="clipPath2">
        <path d="M33 -43 L596 -43 L596 329 L33 329 L33 -43 Z"/>
      </clipPath>
    </defs>
    <g text-rendering="geometricPrecision" stroke-miterlimit="1.45" shape-rendering="geometricPrecision" font-family="sans-serif" transform="matrix(1,0,0,1,-33,43)" stroke-linecap="butt">
      <text x="155.4264" xml:space="preserve" y="-11.744" clip-path="url(#clipPath2)" stroke="none">Roll</text>
    </g>
    <g text-rendering="geometricPrecision" stroke-miterlimit="1.45" shape-rendering="geometricPrecision" font-family="sans-serif" transform="matrix(1,0,0,1,-33,43)" stroke-linecap="butt">
      <text x="56.1826" xml:space="preserve" y="94.1543" clip-path="url(#clipPath2)" stroke="none">0</text>
      <text x="262.0267" xml:space="preserve" y="94.1543" clip-path="url(#clipPath2)" stroke="none">Roll</text>
      <text x="162.7829" xml:space="preserve" y="94.1543" clip-path="url(#clipPath2)" stroke="none">1</text>
      <text x="162.7829" xml:space="preserve" y="200.0526" clip-path="url(#clipPath2)" stroke="none">1</text>
      <text x="269.3831" xml:space="preserve" y="200.0526" clip-path="url(#clipPath2)" stroke="none">2</text>
      <text x="368.6269" xml:space="preserve" y="200.0526" clip-path="url(#clipPath2)" stroke="none">Roll</text>
      <text x="269.3831" xml:space="preserve" y="305.9508" clip-path="url(#clipPath2)" stroke="none">2</text>
      <text x="375.9834" xml:space="preserve" y="305.9508" clip-path="url(#clipPath2)" stroke="none">3</text>
      <path fill="none" d="M160.9527 -10.2879 L65.6441 84.3931" clip-path="url(#clipPath2)"/>
      <rect x="55.6165" y="55.7812" clip-path="url(#clipPath2)" fill="white" width="59.5703" height="17.9688" stroke="none"/>
      <text x="57.6165" xml:space="preserve" y="68.9199" clip-path="url(#clipPath2)" stroke="none">f (failure)</text>
      <path fill="none" d="M172.2478 -10.2879 L267.5564 84.3931" clip-path="url(#clipPath2)"/>
      <rect x="227.7016" y="55.192" clip-path="url(#clipPath2)" fill="white" width="146.5176" height="17.9688" stroke="none"/>
      <text x="229.7016" xml:space="preserve" y="68.3306" clip-path="url(#clipPath2)" stroke="none">exploding success (s*e)</text>
      <path fill="none" d="M166.6003 -4.6517 L166.6003 78.7693" clip-path="url(#clipPath2)"/>
      <rect x="124.6071" y="55.7812" clip-path="url(#clipPath2)" fill="white" width="83.9863" height="17.9688" stroke="none"/>
      <text x="126.6071" xml:space="preserve" y="68.9199" clip-path="url(#clipPath2)" stroke="none">success (s*d)</text>
      <path fill="none" d="M267.553 95.6103 L172.2443 190.2913" clip-path="url(#clipPath2)"/>
      <rect x="162.2167" y="161.6795" clip-path="url(#clipPath2)" fill="white" width="59.5703" height="17.9688" stroke="none"/>
      <text x="164.2167" xml:space="preserve" y="174.8182" clip-path="url(#clipPath2)" stroke="none">f (failure)</text>
      <path fill="none" d="M273.2005 101.2465 L273.2005 184.6676" clip-path="url(#clipPath2)"/>
      <rect x="231.2073" y="161.6795" clip-path="url(#clipPath2)" fill="white" width="83.9863" height="17.9688" stroke="none"/>
      <text x="233.2073" xml:space="preserve" y="174.8182" clip-path="url(#clipPath2)" stroke="none">success (s*d)</text>
      <path fill="none" d="M278.848 95.6103 L374.1566 190.2913" clip-path="url(#clipPath2)"/>
      <rect x="318.5182" y="152.3578" clip-path="url(#clipPath2)" fill="white" width="146.5176" height="17.9688" stroke="none"/>
      <text x="320.5182" xml:space="preserve" y="165.4965" clip-path="url(#clipPath2)" stroke="none">exploding success (s*e)</text>
      <path fill="none" d="M374.1532 201.5086 L278.8446 296.1896" clip-path="url(#clipPath2)"/>
      <rect x="268.817" y="267.5778" clip-path="url(#clipPath2)" fill="white" width="59.5703" height="17.9688" stroke="none"/>
      <text x="270.817" xml:space="preserve" y="280.7164" clip-path="url(#clipPath2)" stroke="none">f (failure)</text>
      <path fill="none" d="M379.8008 207.1448 L379.8008 290.5659" clip-path="url(#clipPath2)"/>
      <rect x="337.8076" y="267.5778" clip-path="url(#clipPath2)" fill="white" width="83.9863" height="17.9688" stroke="none"/>
      <text x="339.8076" xml:space="preserve" y="280.7164" clip-path="url(#clipPath2)" stroke="none">success (s*d)</text>
    </g>
    <g stroke-linecap="round" transform="matrix(1,0,0,1,-33,43)" stroke-dashoffset="2" text-rendering="geometricPrecision" shape-rendering="geometricPrecision" stroke-dasharray="0,8" stroke-width="2" stroke-miterlimit="1.45">
      <path fill="none" d="M385.5003 201.4642 L480.7105 294.4429" clip-path="url(#clipPath2)"/>
      <rect x="434.1641" y="276.9589" clip-path="url(#clipPath2)" fill="white" width="146.5176" height="17.9688" stroke="none"/>
    </g>
    <g text-rendering="geometricPrecision" stroke-miterlimit="1.45" shape-rendering="geometricPrecision" font-family="sans-serif" transform="matrix(1,0,0,1,-33,43)" stroke-linecap="butt">
      <text x="436.1641" xml:space="preserve" y="290.0976" clip-path="url(#clipPath2)" stroke="none">exploding success (s*e)</text>
    </g>
  </g>
</svg>
